<?xml version="1.0" encoding="UTF-8" standalone="no"?><!DOCTYPE svg PUBLIC "-//W3C//DTD SVG 1.1//EN" "http://www.w3.org/Graphics/SVG/1.1/DTD/svg11.dtd"><svg width="100%" height="100%" viewBox="0 0 447 100" version="1.1" xmlns="http://www.w3.org/2000/svg" xmlns:xlink="http://www.w3.org/1999/xlink" xml:space="preserve" xmlns:serif="http://www.serif.com/" style="fill-rule:evenodd;clip-rule:evenodd;stroke-linejoin:round;stroke-miterlimit:2;"><path d="M0,97.476l0,-97.476l34.531,0c34.622,0 51.933,15.838 51.933,47.514c-0,15.181 -4.725,27.303 -14.173,36.367c-9.448,9.063 -22.035,13.595 -37.76,13.595l-34.531,-0Zm21.956,-79.599l-0,61.789l10.876,0c9.516,0 16.982,-2.855 22.397,-8.565c5.416,-5.709 8.123,-13.481 8.123,-23.315c0,-9.29 -2.685,-16.597 -8.055,-21.922c-5.37,-5.324 -12.904,-7.987 -22.601,-7.987l-10.74,0Z" style="fill:#001e4a;fill-rule:nonzero;"/><path d="M184.238,97.476l-27.733,-0l-28.414,-42.349c-0.543,-0.815 -1.404,-2.605 -2.583,-5.37l-0.34,0l0,47.719l-21.955,-0l-0,-97.476l21.955,0l0,46.087l0.34,-0c0.544,-1.269 1.45,-3.082 2.719,-5.438l26.918,-40.649l26.17,0l-33.987,46.495l36.91,50.981Z" style="fill:#001e4a;fill-rule:nonzero;"/><rect x="198.987" y="0" width="21.956" height="97.476" style="fill:#001e4a;fill-rule:nonzero;"/><path d="M237.692,97.476l0,-97.476l35.483,0c10.876,0 19.237,1.994 25.082,5.982c5.846,3.988 8.769,9.607 8.769,16.857c0,5.257 -1.779,9.857 -5.336,13.799c-3.557,3.943 -8.1,6.684 -13.629,8.225l0,0.272c6.934,0.861 12.474,3.422 16.62,7.681c4.146,4.26 6.22,9.449 6.22,15.566c-0,8.928 -3.195,16.008 -9.585,21.243c-6.389,5.234 -15.113,7.851 -26.17,7.851l-37.454,-0Zm21.956,-81.298l-0,23.111l9.652,0c4.532,0 8.101,-1.099 10.706,-3.296c2.606,-2.198 3.909,-5.223 3.909,-9.075c-0,-7.16 -5.348,-10.74 -16.042,-10.74l-8.225,-0Zm-0,39.425l-0,25.695l11.895,-0c5.076,-0 9.052,-1.179 11.93,-3.535c2.878,-2.357 4.316,-5.574 4.316,-9.652c0,-3.898 -1.416,-6.957 -4.248,-9.177c-2.832,-2.221 -6.786,-3.331 -11.862,-3.331l-12.031,0Z" style="fill:#001e4a;fill-rule:nonzero;"/><path d="M408.268,55.263c-0,29.275 -13.641,43.912 -40.921,43.912c-26.465,-0 -39.697,-14.297 -39.697,-42.892l-0,-56.283l22.023,0l0,56.555c0,15.77 6.163,23.655 18.49,23.655c12.099,0 18.149,-7.613 18.149,-22.839l-0,-57.371l21.956,0l-0,55.263Z" style="fill:#001e4a;fill-rule:nonzero;"/><rect x="425.016" y="0" width="21.956" height="97.476" style="fill:#001e4a;fill-rule:nonzero;"/></svg>