<?xml version="1.0" encoding="UTF-8" standalone="no"?><!DOCTYPE svg PUBLIC "-//W3C//DTD SVG 1.1//EN" "http://www.w3.org/Graphics/SVG/1.1/DTD/svg11.dtd"><svg width="100%" height="100%" viewBox="0 0 1863 414" version="1.1" xmlns="http://www.w3.org/2000/svg" xmlns:xlink="http://www.w3.org/1999/xlink" xml:space="preserve" xmlns:serif="http://www.serif.com/" style="fill-rule:evenodd;clip-rule:evenodd;stroke-linejoin:round;stroke-miterlimit:2;"><path d="M0,406.15l0,-406.15l143.879,0c144.259,0 216.388,65.992 216.388,197.975c-0,63.254 -19.688,113.763 -59.054,151.529c-39.367,37.763 -91.813,56.646 -157.334,56.646l-143.879,0Zm91.483,-331.663l0,257.455l45.317,-0c39.65,-0 70.758,-11.896 93.321,-35.688c22.567,-23.787 33.846,-56.171 33.846,-97.146c-0,-38.708 -11.188,-69.154 -33.563,-91.341c-22.375,-22.184 -53.766,-33.279 -94.171,-33.279l-44.75,-0Z" style="fill:#fff;fill-rule:nonzero;"/><path d="M767.658,406.15l-115.554,0l-118.391,-176.454c-2.263,-3.396 -5.851,-10.854 -10.763,-22.375l-1.417,-0l0,198.829l-91.479,0l0,-406.15l91.479,0l0,192.029l1.417,0c2.267,-5.287 6.042,-12.841 11.329,-22.658l112.159,-169.371l109.041,0l-141.612,193.729l153.791,212.421Z" style="fill:#fff;fill-rule:nonzero;"/><rect x="829.113" y="0" width="91.483" height="406.15" style="fill:#fff;"/><path d="M990.383,406.15l0,-406.15l147.846,0c45.317,0 80.154,8.308 104.509,24.925c24.358,16.617 36.537,40.029 36.537,70.238c0,21.904 -7.412,41.07 -22.233,57.495c-14.821,16.43 -33.75,27.85 -56.788,34.271l0,1.133c28.892,3.588 51.975,14.259 69.25,32.005c17.275,17.75 25.917,39.371 25.917,64.858c-0,37.2 -13.313,66.7 -39.938,88.512c-26.62,21.809 -62.97,32.713 -109.041,32.713l-156.059,-0Zm91.484,-338.742l-0,96.296l40.216,0c18.884,0 33.755,-4.579 44.609,-13.733c10.858,-9.159 16.287,-21.763 16.287,-37.813c0,-29.833 -22.283,-44.75 -66.841,-44.75l-34.271,0Zm-0,164.271l-0,107.063l49.562,-0c21.15,-0 37.717,-4.913 49.709,-14.729c11.991,-9.821 17.983,-23.225 17.983,-40.217c-0,-16.242 -5.9,-28.988 -17.7,-38.238c-11.8,-9.254 -28.275,-13.879 -49.425,-13.879l-50.129,0Z" style="fill:#fff;fill-rule:nonzero;"/><path d="M1701.12,230.263c-0,121.979 -56.838,182.966 -170.505,182.966c-110.27,0 -165.404,-59.571 -165.404,-178.717l0,-234.512l91.763,-0l-0,235.646c-0,65.708 25.679,98.562 77.042,98.562c50.412,0 75.62,-31.72 75.62,-95.162l0,-239.046l91.484,-0l-0,230.262Z" style="fill:#fff;fill-rule:nonzero;"/><rect x="1770.9" y="0" width="91.483" height="406.15" style="fill:#fff;"/></svg>