<?xml version="1.0" encoding="UTF-8" standalone="no"?><!DOCTYPE svg PUBLIC "-//W3C//DTD SVG 1.1//EN" "http://www.w3.org/Graphics/SVG/1.1/DTD/svg11.dtd"><svg width="100%" height="100%" viewBox="0 0 268 268" version="1.1" xmlns="http://www.w3.org/2000/svg" xmlns:xlink="http://www.w3.org/1999/xlink" xml:space="preserve" xmlns:serif="http://www.serif.com/" style="fill-rule:evenodd;clip-rule:evenodd;stroke-linejoin:round;stroke-miterlimit:2;"><g><path d="M133.724,267.448c-36.945,0 -68.468,-13.051 -94.571,-39.153c-26.102,-26.103 -39.153,-57.626 -39.153,-94.571c0,-36.945 13.051,-68.468 39.153,-94.571c26.103,-26.102 57.626,-39.153 94.571,-39.153c36.945,0 68.468,13.051 94.571,39.153c26.102,26.103 39.153,57.626 39.153,94.571c0,36.945 -13.051,68.468 -39.153,94.571c-26.103,26.102 -57.626,39.153 -94.571,39.153Zm0,-17.038c32.241,0 59.749,-11.379 82.524,-34.137c22.775,-22.758 34.162,-50.245 34.162,-82.463c0,-32.217 -11.387,-59.734 -34.162,-82.549c-22.775,-22.815 -50.283,-34.223 -82.524,-34.223c-32.241,0 -59.748,11.408 -82.523,34.223c-22.775,22.815 -34.163,50.332 -34.163,82.549c0,32.218 11.388,59.705 34.163,82.463c22.775,22.758 50.282,34.137 82.523,34.137Zm-76.414,-71.079l0,-17.038l152.828,0l-0,17.038l-152.828,0Zm33.905,-66.948c-5.852,0 -10.843,-2.065 -14.973,-6.195c-4.131,-4.131 -6.196,-9.122 -6.196,-14.973c-0,-5.852 2.065,-10.843 6.196,-14.973c4.13,-4.131 9.121,-6.196 14.973,-6.196c5.966,-0 11.014,2.065 15.145,6.196c4.13,4.13 6.195,9.121 6.195,14.973c0,5.851 -2.093,10.842 -6.281,14.973c-4.188,4.13 -9.208,6.195 -15.059,6.195Zm85.019,0c-5.852,0 -10.872,-2.065 -15.059,-6.195c-4.188,-4.131 -6.282,-9.122 -6.282,-14.973c-0,-5.852 2.094,-10.843 6.282,-14.973c4.187,-4.131 9.207,-6.196 15.059,-6.196c5.851,-0 10.842,2.065 14.973,6.196c4.13,4.13 6.195,9.121 6.195,14.973c0,5.851 -2.065,10.842 -6.195,14.973c-4.131,4.13 -9.122,6.195 -14.973,6.195Z" style="fill:#19d44c;fill-rule:nonzero;"/></g></svg>